<svg xmlns="http://www.w3.org/2000/svg" xmlns:xlink="http://www.w3.org/1999/xlink" width="500" zoomAndPan="magnify" viewBox="0 0 375 374.999991" height="500" preserveAspectRatio="xMidYMid meet" version="1.0"><defs><g/></defs><g fill="#50c878" fill-opacity="1"><g transform="translate(38.730471, 142.27844)"><g><path d="M 72.5 0 L 11.171875 0 L 11.171875 -103.3125 L 72.5 -103.3125 L 72.5 -80.90625 L 39.078125 -80.90625 L 39.078125 -64.65625 L 70.03125 -64.65625 L 70.03125 -42.25 L 39.078125 -42.25 L 39.078125 -22.75 L 72.5 -22.75 Z M 72.5 0 "/></g></g></g><g fill="#50c878" fill-opacity="1"><g transform="translate(118.14761, 142.27844)"><g><path d="M 57.59375 1.40625 C 53.539062 1.40625 49.910156 0.738281 46.703125 -0.59375 C 43.503906 -1.9375 40.328125 -4.351562 37.171875 -7.84375 L 35.890625 -7.84375 C 36.742188 -2.238281 37.171875 1.242188 37.171875 2.609375 L 37.171875 34.765625 L 9.546875 34.765625 L 9.546875 -80.0625 L 32.015625 -80.0625 L 35.890625 -69.890625 L 37.171875 -69.890625 C 42.304688 -77.609375 49.394531 -81.46875 58.4375 -81.46875 C 67.289062 -81.46875 74.238281 -77.789062 79.28125 -70.4375 C 84.320312 -63.09375 86.84375 -53.015625 86.84375 -40.203125 C 86.84375 -27.296875 84.21875 -17.132812 78.96875 -9.71875 C 73.71875 -2.300781 66.59375 1.40625 57.59375 1.40625 Z M 48.328125 -59.78125 C 44.273438 -59.78125 41.4375 -58.332031 39.8125 -55.4375 C 38.1875 -52.539062 37.304688 -48.242188 37.171875 -42.546875 L 37.171875 -40.34375 C 37.171875 -33.46875 38.085938 -28.5 39.921875 -25.4375 C 41.765625 -22.375 44.660156 -20.84375 48.609375 -20.84375 C 52.148438 -20.84375 54.71875 -22.363281 56.3125 -25.40625 C 57.914062 -28.445312 58.71875 -33.472656 58.71875 -40.484375 C 58.71875 -47.367188 57.914062 -52.304688 56.3125 -55.296875 C 54.71875 -58.285156 52.054688 -59.78125 48.328125 -59.78125 Z M 48.328125 -59.78125 "/></g></g></g><g fill="#50c878" fill-opacity="1"><g transform="translate(211.201323, 142.27844)"><g><path d="M 37.3125 0 L 9.6875 0 L 9.6875 -80.0625 L 37.3125 -80.0625 Z M 8.96875 -99.984375 C 8.96875 -104.128906 10.125 -107.210938 12.4375 -109.234375 C 14.75 -111.265625 18.472656 -112.28125 23.609375 -112.28125 C 28.734375 -112.28125 32.472656 -111.242188 34.828125 -109.171875 C 37.191406 -107.097656 38.375 -104.035156 38.375 -99.984375 C 38.375 -91.878906 33.453125 -87.828125 23.609375 -87.828125 C 13.847656 -87.828125 8.96875 -91.878906 8.96875 -99.984375 Z M 8.96875 -99.984375 "/></g></g></g><g fill="#50c878" fill-opacity="1"><g transform="translate(258.258098, 142.27844)"><g><path d="M 46 1.40625 C 32.90625 1.40625 22.976562 -2.125 16.21875 -9.1875 C 9.457031 -16.25 6.078125 -26.398438 6.078125 -39.640625 C 6.078125 -52.921875 9.726562 -63.210938 17.03125 -70.515625 C 24.332031 -77.816406 34.71875 -81.46875 48.1875 -81.46875 C 57.46875 -81.46875 66.207031 -79.441406 74.40625 -75.390625 L 66.28125 -54.96875 C 62.9375 -56.4375 59.847656 -57.601562 57.015625 -58.46875 C 54.191406 -59.34375 51.25 -59.78125 48.1875 -59.78125 C 43.71875 -59.78125 40.253906 -58.035156 37.796875 -54.546875 C 35.347656 -51.066406 34.125 -46.144531 34.125 -39.78125 C 34.125 -26.96875 38.859375 -20.5625 48.328125 -20.5625 C 56.429688 -20.5625 64.207031 -22.914062 71.65625 -27.625 L 71.65625 -5.65625 C 64.539062 -0.945312 55.988281 1.40625 46 1.40625 Z M 46 1.40625 "/></g></g></g><g fill="#50c878" fill-opacity="1"><g transform="translate(4.781254, 344.778427)"><g><path d="M 11.171875 0 L 11.171875 -103.3125 L 39.078125 -103.3125 L 39.078125 -22.546875 L 78.859375 -22.546875 L 78.859375 0 Z M 11.171875 0 "/></g></g></g><g fill="#50c878" fill-opacity="1"><g transform="translate(89.002989, 344.778427)"><g><path d="M 37.3125 0 L 9.6875 0 L 9.6875 -80.0625 L 37.3125 -80.0625 Z M 8.96875 -99.984375 C 8.96875 -104.128906 10.125 -107.210938 12.4375 -109.234375 C 14.75 -111.265625 18.472656 -112.28125 23.609375 -112.28125 C 28.734375 -112.28125 32.472656 -111.242188 34.828125 -109.171875 C 37.191406 -107.097656 38.375 -104.035156 38.375 -99.984375 C 38.375 -91.878906 33.453125 -87.828125 23.609375 -87.828125 C 13.847656 -87.828125 8.96875 -91.878906 8.96875 -99.984375 Z M 8.96875 -99.984375 "/></g></g></g><g fill="#50c878" fill-opacity="1"><g transform="translate(136.059764, 344.778427)"><g><path d="M 48.1875 1.40625 C 34.851562 1.40625 24.5 -2.132812 17.125 -9.21875 C 9.757812 -16.3125 6.078125 -26.40625 6.078125 -39.5 C 6.078125 -53.019531 9.488281 -63.394531 16.3125 -70.625 C 23.144531 -77.851562 32.898438 -81.46875 45.578125 -81.46875 C 57.640625 -81.46875 66.957031 -78.320312 73.53125 -72.03125 C 80.101562 -65.75 83.390625 -56.695312 83.390625 -44.875 L 83.390625 -32.578125 L 33.984375 -32.578125 C 34.171875 -28.097656 35.804688 -24.585938 38.890625 -22.046875 C 41.984375 -19.503906 46.191406 -18.234375 51.515625 -18.234375 C 56.367188 -18.234375 60.832031 -18.691406 64.90625 -19.609375 C 68.976562 -20.523438 73.394531 -22.09375 78.15625 -24.3125 L 78.15625 -4.453125 C 73.820312 -2.234375 69.34375 -0.703125 64.71875 0.140625 C 60.101562 0.984375 54.59375 1.40625 48.1875 1.40625 Z M 46.5625 -62.671875 C 43.3125 -62.671875 40.59375 -61.644531 38.40625 -59.59375 C 36.21875 -57.550781 34.929688 -54.335938 34.546875 -49.953125 L 58.296875 -49.953125 C 58.203125 -53.816406 57.101562 -56.898438 55 -59.203125 C 52.90625 -61.515625 50.09375 -62.671875 46.5625 -62.671875 Z M 46.5625 -62.671875 "/></g></g></g><g fill="#50c878" fill-opacity="1"><g transform="translate(225.51003, 344.778427)"><g><path d="M 107.828125 0 L 107.828125 -43.53125 C 107.828125 -48.945312 107.082031 -53.007812 105.59375 -55.71875 C 104.113281 -58.425781 101.773438 -59.78125 98.578125 -59.78125 C 94.335938 -59.78125 91.226562 -57.96875 89.25 -54.34375 C 87.269531 -50.71875 86.28125 -45.039062 86.28125 -37.3125 L 86.28125 0 L 58.578125 0 L 58.578125 -43.53125 C 58.578125 -48.945312 57.867188 -53.007812 56.453125 -55.71875 C 55.046875 -58.425781 52.765625 -59.78125 49.609375 -59.78125 C 45.273438 -59.78125 42.117188 -57.847656 40.140625 -53.984375 C 38.160156 -50.117188 37.171875 -43.804688 37.171875 -35.046875 L 37.171875 0 L 9.546875 0 L 9.546875 -80.0625 L 30.390625 -80.0625 L 33.84375 -70.171875 L 35.46875 -70.171875 C 37.59375 -73.847656 40.664062 -76.648438 44.6875 -78.578125 C 48.71875 -80.503906 53.300781 -81.46875 58.4375 -81.46875 C 69.976562 -81.46875 78.082031 -77.960938 82.75 -70.953125 L 84.9375 -70.953125 C 87.195312 -74.242188 90.335938 -76.816406 94.359375 -78.671875 C 98.390625 -80.535156 102.832031 -81.46875 107.6875 -81.46875 C 117.15625 -81.46875 124.148438 -79.039062 128.671875 -74.1875 C 133.203125 -69.34375 135.46875 -61.972656 135.46875 -52.078125 L 135.46875 0 Z M 107.828125 0 "/></g></g></g></svg>